<svg width="60" height="60" xmlns="http://www.w3.org/2000/svg">

 <title/>
 <g>
  <title>background</title>
  <rect fill="#d7d9db" id="canvas_background" height="62" width="62" y="-1" x="-1"/>
 </g>
 <g>
  <title>Layer 1</title>
  <path fill="#117c09" id="svg_1" d="m22,1a27.673,27.673 0 0 0 8,1a27.673,27.673 0 0 0 8,-1l0,8l-16,0l0,-8z" class="cls-1"/>
  <path fill="#125d0d" id="svg_2" d="m58.33,22.14l-6.02,5.35a1.994,1.994 0 0 1 -2.89,-0.24l-1.42,-1.76l-2,-2.49l0,34a2.006,2.006 0 0 1 -2,2l-28,0a2.006,2.006 0 0 1 -2,-2l0,-34l-3.42,4.25a1.994,1.994 0 0 1 -2.89,0.24l-6.02,-5.35a1.992,1.992 0 0 1 -0.24,-2.73l9.33,-11.83a8.823,8.823 0 0 1 3.04,-2.48l8.2,-4.1s2,7 8,7s8,-7 8,-7l8.2,4.1a8.823,8.823 0 0 1 3.04,2.48l9.33,11.83a1.992,1.992 0 0 1 -0.24,2.73z" class="cls-2"/>
  <path fill="#bb2525" id="svg_3" d="m35.881,31.938l-4.455,4.472a2.018,2.018 0 0 1 -2.852,0l-4.455,-4.472a3.51,3.51 0 0 1 -0.225,-4.826a3.364,3.364 0 0 1 4.9,-0.1l1.206,1.188l1.2,-1.192a3.364,3.364 0 0 1 4.9,0.1a3.51,3.51 0 0 1 -0.219,4.83z" class="cls-3"/>
  <path fill="#ffffff" id="svg_4" d="m25,50a1,1 0 0 1 -0.707,-0.293l-3,-3a1,1 0 0 1 0,-1.414l3,-3a1,1 0 0 1 1.414,1.414l-2.293,2.293l2.293,2.293a1,1 0 0 1 -0.707,1.707z" class="cls-4"/>
  <path fill="#ffffff" id="svg_5" d="m35,50a1,1 0 0 1 -0.707,-1.707l2.293,-2.293l-2.293,-2.293a1,1 0 0 1 1.414,-1.414l3,3a1,1 0 0 1 0,1.414l-3,3a1,1 0 0 1 -0.707,0.293z" class="cls-4"/>
  <path fill="#ffffff" id="svg_6" d="m29,51a1.017,1.017 0 0 1 -0.243,-0.03a1,1 0 0 1 -0.728,-1.212l2,-8a1,1 0 1 1 1.94,0.484l-2,8a1,1 0 0 1 -0.969,0.758z" class="cls-4"/>
  <path fill="#ffffff" id="svg_7" d="m31,20l0,-4a1,1 0 0 0 0,-2l-2,0a1,1 0 0 0 0,2l0,4a1,1 0 0 0 0,2l2,0a1,1 0 0 0 0,-2z" class="cls-4"/>
  <path fill="#117c09" id="svg_8" d="m48,16l0,9.49l-2,-2.49l0,-7a1,1 0 0 1 2,0z" class="cls-1"/>
  <path fill="#117c09" id="svg_9" d="m12,16l0,9.49l2,-2.49l0,-7a1,1 0 0 0 -2,0z" class="cls-1"/>
 </g>
</svg>