<svg width="422.9000732421875px" height="100.4099609375px" xmlns="http://www.w3.org/2000/svg" viewBox="38.549963378906256 24.79501953125 422.9000732421875 100.4099609375" style="background: rgba(0, 0, 0, 0);" preserveAspectRatio="xMidYMid"><defs><linearGradient id="editing-outline-gradient" x1="-0.5" x2="1.5" y1="0.5" y2="0.5"><stop offset="0" stop-color="#43ff00"></stop><stop offset="1" stop-color="#000000"></stop></linearGradient><filter id="editing-outline" x="-100%" y="-100%" width="300%" height="300%"><feMorphology in="SourceGraphic" operator="dilate" radius="8" result="outline"></feMorphology><feComposite operator="out" in="outline" in2="SourceAlpha"></feComposite></filter></defs><g filter="url(#editing-outline)"><g transform="translate(101.74061954021454, 91.04000091552734)"><path d="M19.56-27.64L33.36-27.64L33.36 0L19.56 0L19.56-10L17.80-5.36L16.76-5.36L14.92-10L14.92 0L1.16 0L1.16-27.64L14.92-27.64L16.76-22.32L17.80-22.32L19.56-27.64ZM41.56-21.68L41.56-21.68L41.56-21.68Q38.52-21.68 37.08-22.88L37.08-22.88L37.08-22.88Q35.64-24.08 35.64-26.72L35.64-26.72L35.64-26.72Q35.64-29.36 37.10-30.52L37.10-30.52L37.10-30.52Q38.56-31.68 41.56-31.68L41.56-31.68L41.56-31.68Q47.56-31.68 47.56-26.84L47.56-26.84L47.56-26.84Q47.56-24.08 46.08-22.88L46.08-22.88L46.08-22.88Q44.60-21.68 41.56-21.68ZM47.56 0L35.64 0L35.64-20.76L47.56-20.76L47.56 0ZM71.32-10.28L71.32-0.80L71.32-0.80Q68.72 0.40 62.16 0.40L62.16 0.40L62.16 0.40Q55.60 0.40 52.74-2.60L52.74-2.60L52.74-2.60Q49.88-5.60 49.88-11.92L49.88-11.92L49.88-11.92Q49.88-18.24 53.08-21.14L53.08-21.14L53.08-21.14Q56.28-24.04 62.68-24.04L62.68-24.04L62.68-24.04Q65.56-24.04 67.72-23.64L67.72-23.64L67.72-23.64Q69.88-23.24 70.60-22.84L70.60-22.84L71.32-22.44L71.32-11.88L63.12-11.88L63.12-10.12L63.12-10.12Q63.84-10 65.56-10L65.56-10L65.56-10Q68.44-10 70.72-10.24L70.72-10.24L71.32-10.28ZM98.52 0L87.20 0L87.20-12.68L87.20-12.68Q87.20-13.16 86.86-13.50L86.86-13.50L86.86-13.50Q86.52-13.84 86.04-13.84L86.04-13.84L86.04-13.84Q85.56-13.84 85.24-13.50L85.24-13.50L85.24-13.50Q84.92-13.16 84.92-12.68L84.92-12.68L84.92 0L73.60 0L73.60-29.80L85.52-29.80L85.52-24.76L85.12-21.32L85.12-21.32Q85.28-21.84 85.68-22.36L85.68-22.36L85.68-22.36Q86.08-22.88 87.40-23.46L87.40-23.46L87.40-23.46Q88.72-24.04 90.64-24.04L90.64-24.04L90.64-24.04Q94.56-24.04 96.54-21.88L96.54-21.88L96.54-21.88Q98.52-19.72 98.52-15.60L98.52-15.60L98.52 0ZM124.32-15.12L124.32-15.12L124.12-10.20L125.12-10.24L125.12-1.16L125.12-1.16Q124.40-0.56 122.64-0.08L122.64-0.08L122.64-0.08Q120.88 0.40 119.32 0.40L119.32 0.40L119.32 0.40Q117.76 0.40 116.84 0.12L116.84 0.12L116.84 0.12Q115.92-0.16 115.48-0.50L115.48-0.50L115.48-0.50Q115.04-0.84 114.80-1.28L114.80-1.28L114.80-1.28Q114.44-1.92 114.44-2.36L114.44-2.36L114.44-2.36Q112.24 0.40 107.44 0.40L107.44 0.40L107.44 0.40Q100.84 0.40 100.84-5.20L100.84-5.20L100.84-5.20Q100.84-8.56 103.40-9.98L103.40-9.98L103.40-9.98Q105.96-11.40 112.36-11.68L112.36-11.68L112.36-11.68Q112.36-13.08 109.28-13.08L109.28-13.08L109.28-13.08Q107.20-13.08 105.30-12.56L105.30-12.56L105.30-12.56Q103.40-12.04 102.56-11.52L102.56-11.52L101.68-11L101.68-21.52L101.68-21.52Q102.04-21.80 102.76-22.22L102.76-22.22L102.76-22.22Q103.48-22.64 106.16-23.34L106.16-23.34L106.16-23.34Q108.84-24.04 112.04-24.04L112.04-24.04L112.04-24.04Q118.44-24.04 121.38-21.88L121.38-21.88L121.38-21.88Q124.32-19.72 124.32-15.12ZM113-8.76L113-8.76L113-10.36L110.72-9.72L110.72-8.76L110.72-8.76Q110.72-8.24 111.06-7.92L111.06-7.92L111.06-7.92Q111.40-7.60 111.90-7.60L111.90-7.60L111.90-7.60Q112.40-7.60 112.70-7.92L112.70-7.92L112.70-7.92Q113-8.24 113-8.76ZM127.16-11.78L127.16-11.78L127.16-11.78Q127.16-17.88 129.94-20.96L129.94-20.96L129.94-20.96Q132.72-24.04 139.04-24.04L139.04-24.04L139.04-24.04Q145.36-24.04 147.84-21.48L147.84-21.48L147.84-21.48Q150.32-18.92 150.32-13.08L150.32-13.08L150.12-10L139.08-10L139.08-8.64L139.08-8.64Q140.08-8.40 142-8.40L142-8.40L142-8.40Q146.08-8.40 148.60-8.76L148.60-8.76L149.44-8.88L149.44-1.36L149.44-1.36Q149.12-1.16 148.42-0.86L148.42-0.86L148.42-0.86Q147.72-0.56 145.08-0.08L145.08-0.08L145.08-0.08Q142.44 0.40 139.20 0.40L139.20 0.40L139.20 0.40Q132.80 0.40 129.98-2.64L129.98-2.64L129.98-2.64Q127.16-5.68 127.16-11.78ZM138.48-13.56L138.48-13.56L138.48-12L140.76-12L140.76-13.56L140.76-13.56Q140.76-14.08 140.42-14.40L140.42-14.40L140.42-14.40Q140.08-14.72 139.58-14.72L139.58-14.72L139.58-14.72Q139.08-14.72 138.78-14.40L138.78-14.40L138.78-14.40Q138.48-14.08 138.48-13.56ZM152.60-5.88L152.60-5.88L152.60-29.80L164.60-29.80L164.60-10.28L165.44-10.28L165.44-0.44L165.44-0.44Q163.32 0.40 159.54 0.40L159.54 0.40L159.54 0.40Q155.76 0.40 154.18-1.16L154.18-1.16L154.18-1.16Q152.60-2.72 152.60-5.88ZM180.32-15.16L182.64-15.16L182.64-27.64L195.80-27.64L195.80 0L182.64 0L182.64-9.32L180.32-9.32L180.32 0L167.20 0L167.20-27.64L180.32-27.64L180.32-15.16ZM211.68-10.48L211.68-23.64L223-23.64L223 0L212.92 0L212.52-2.92L212.52-2.92Q212.36-2.48 211.80-1.84L211.80-1.84L211.80-1.84Q211.24-1.20 210.60-0.76L210.60-0.76L210.60-0.76Q208.84 0.40 205.96 0.40L205.96 0.40L205.96 0.40Q202.04 0.40 200.06-1.76L200.06-1.76L200.06-1.76Q198.08-3.92 198.08-8L198.08-8L198.08-23.64L209.40-23.64L209.40-10.48L209.40-10.48Q209.40-10 209.74-9.66L209.74-9.66L209.74-9.66Q210.08-9.32 210.56-9.32L210.56-9.32L210.56-9.32Q211.04-9.32 211.36-9.66L211.36-9.66L211.36-9.66Q211.68-10 211.68-10.48L211.68-10.48ZM225.32 0L225.32-29.80L237.24-29.80L237.24-24.76L237.16-23.04L237.16-23.04Q237.36-23.52 238.48-23.78L238.48-23.78L238.48-23.78Q239.60-24.04 240.88-24.04L240.88-24.04L240.88-24.04Q245.32-24.04 247.78-20.86L247.78-20.86L247.78-20.86Q250.24-17.68 250.24-11.90L250.24-11.90L250.24-11.90Q250.24-6.12 247.68-2.98L247.68-2.98L247.68-2.98Q245.12 0.16 240.40 0.16L240.40 0.16L240.40 0.16Q237.20 0.16 235.20-1.40L235.20-1.40L235.20-1.40Q234.76-1.76 234.40-2.28L234.40-2.28L233.56 0L225.32 0ZM236.64-12.12L236.64-12.12L236.64-8.76L236.64-8.76Q236.64-8.24 236.94-7.92L236.94-7.92L236.94-7.92Q237.24-7.60 237.74-7.60L237.74-7.60L237.74-7.60Q238.24-7.60 238.58-7.92L238.58-7.92L238.58-7.92Q238.92-8.24 238.92-8.76L238.92-8.76L238.92-12.12L238.92-12.12Q238.92-12.60 238.58-12.94L238.58-12.94L238.58-12.94Q238.24-13.28 237.76-13.28L237.76-13.28L237.76-13.28Q237.28-13.28 236.96-12.94L236.96-12.94L236.96-12.94Q236.64-12.60 236.64-12.12ZM252.56-11.78L252.56-11.78L252.56-11.78Q252.56-17.88 255.34-20.96L255.34-20.96L255.34-20.96Q258.12-24.04 264.44-24.04L264.44-24.04L264.44-24.04Q270.76-24.04 273.24-21.48L273.24-21.48L273.24-21.48Q275.72-18.92 275.72-13.08L275.72-13.08L275.52-10L264.48-10L264.48-8.64L264.48-8.64Q265.48-8.40 267.40-8.40L267.40-8.40L267.40-8.40Q271.48-8.40 274-8.76L274-8.76L274.84-8.88L274.84-1.36L274.84-1.36Q274.52-1.16 273.82-0.86L273.82-0.86L273.82-0.86Q273.12-0.56 270.48-0.08L270.48-0.08L270.48-0.08Q267.84 0.40 264.60 0.40L264.60 0.40L264.60 0.40Q258.20 0.40 255.38-2.64L255.38-2.64L255.38-2.64Q252.56-5.68 252.56-11.78ZM263.88-13.56L263.88-13.56L263.88-12L266.16-12L266.16-13.56L266.16-13.56Q266.16-14.08 265.82-14.40L265.82-14.40L265.82-14.40Q265.48-14.72 264.98-14.72L264.98-14.72L264.98-14.72Q264.48-14.72 264.18-14.40L264.18-14.40L264.18-14.40Q263.88-14.08 263.88-13.56ZM289.92-11.48L289.92 0L278.00 0L278.00-23.64L288.04-23.64L288.44-20.72L288.44-20.72Q288.52-20.84 288.64-21.04L288.64-21.04L288.64-21.04Q288.76-21.24 289.32-21.74L289.32-21.74L289.32-21.74Q289.88-22.24 290.60-22.64L290.60-22.64L290.60-22.64Q292.60-23.64 295.64-23.64L295.64-23.64L295.64-10.92L289.92-11.48Z" fill="url(#editing-outline-gradient)"></path></g></g><style>text {
  font-size: 64px;
  font-family: Arial Black;
  dominant-baseline: central;
  text-anchor: middle;
}</style></svg>