<svg width="80" height="80" xmlns="http://www.w3.org/2000/svg">

 <g>
  <title>background</title>
  <rect fill="#ffffff" id="canvas_background" height="82" width="82" y="-1" x="-1"/>
 </g>
 <g>
  <title>Layer 1</title>
  <path id="svg_2" d="m40,33.468l14,14l0,12.532l-5,0l0,-12l-18,0l0,12l-5,0l0,-12.532l14,-14m0,-7.071l-19,19l0,19.603l15,0l0,-12l8,0l0,12l15,0l0,-19.603l-19,-19l0,0z"/>
  <polygon id="svg_3" points="40,15.1 14.544,40.556 18.08,44.092 40,22.171 61.92,44.092 65.456,40.556  "/>
 </g>
</svg>