<svg width="24" height="24" xmlns="http://www.w3.org/2000/svg">

 <g>
  <title>background</title>
  <rect fill="#ffffff" id="canvas_background" height="26" width="26" y="-1" x="-1"/>
 </g>
 <g>
  <title>Layer 1</title>
  <path id="svg_3" fill="#00936B" d="m18,7.07l-0.07,0.93l-0.35,5l-0.36,5l-0.22,3.07c-0.04,0.52 -0.48,0.93 -1,0.93l-8,0c-0.52,0 -0.96,-0.41 -1,-0.93l-0.22,-3.07l-0.36,-5l-0.35,-5l-0.07,-0.93c-0.02,-0.28 0.08,-0.55 0.27,-0.75c0.19,-0.2 0.45,-0.32 0.73,-0.32l10,0c0.28,0 0.54,0.12 0.73,0.32c0.19,0.2 0.29,0.47 0.27,0.75z"/>
  <polygon id="svg_6" points="17.58,13 17.22,18 6.78,18 6.42,13    " fill="#FFB132"/>
  <path id="svg_9" fill="#137D70" d="m19,3l0,4c0,0.55 -0.45,1 -1,1l-12,0c-0.55,0 -1,-0.45 -1,-1l0,-4c0,-0.55 0.45,-1 1,-1l12,0c0.55,0 1,0.45 1,1z"/>
 </g>
</svg>