<?xml version="1.0" standalone="no"?>
<!DOCTYPE svg PUBLIC "-//W3C//DTD SVG 20010904//EN"
 "http://www.w3.org/TR/2001/REC-SVG-20010904/DTD/svg10.dtd">
<svg version="1.0" xmlns="http://www.w3.org/2000/svg"
 width="225.000000pt" height="225.000000pt" viewBox="0 0 225.000000 225.000000"
 preserveAspectRatio="xMidYMid meet">
<metadata>
Created by potrace 1.14, written by Peter Selinger 2001-2017
</metadata>
<g transform="translate(0.000000,225.000000) scale(0.100000,-0.100000)"
fill="#000000" stroke="none">
<path d="M806 2134 c-7 -18 -5 -22 41 -82 45 -59 45 -104 1 -162 -112 -146
-127 -180 -109 -246 13 -48 65 -132 87 -141 8 -3 23 2 32 11 16 15 16 18 0 44
-10 15 -27 47 -39 71 -27 57 -17 95 46 171 87 103 103 164 66 245 -39 86 -108
135 -125 89z"/>
<path d="M983 2124 c-3 -9 -2 -23 3 -30 5 -7 22 -32 39 -55 44 -62 41 -103
-13 -170 -81 -101 -95 -128 -100 -183 -3 -42 1 -62 21 -102 44 -85 85 -115
106 -76 7 13 1 31 -25 72 -54 86 -45 132 47 238 84 95 82 198 -5 295 -28 30
-63 36 -73 11z"/>
<path d="M1173 2124 c-3 -9 -2 -22 3 -29 42 -54 74 -113 74 -136 0 -27 -31
-79 -83 -138 -39 -45 -67 -107 -67 -152 0 -68 79 -189 115 -175 29 11 27 35
-5 80 -40 56 -49 119 -23 158 10 14 39 54 65 88 82 107 85 172 12 273 -36 50
-78 64 -91 31z"/>
<path d="M245 1440 c-34 -38 -6 -367 45 -540 21 -71 79 -196 110 -240 11 -16
20 -33 20 -39 0 -7 -54 -11 -156 -13 -131 -3 -159 -6 -167 -19 -18 -29 2 -63
90 -155 103 -106 168 -143 308 -174 81 -18 128 -20 485 -20 356 0 404 2 485
20 140 31 219 75 322 180 106 109 109 114 89 146 -16 24 -18 24 -176 24 -88 0
-160 2 -160 5 0 2 12 21 26 42 14 21 37 61 51 88 14 28 27 52 29 54 2 2 22
-16 44 -41 107 -122 277 -113 403 21 172 184 156 502 -30 592 -86 42 -194 28
-278 -37 l-45 -34 0 64 c0 105 71 96 -757 96 -707 0 -720 0 -738 -20z m1383
-152 l-2 -63 -3 58 -4 57 -634 0 -634 0 -4 -52 -3 -53 -2 58 -2 57 645 0 645
0 -2 -62z m402 -20 c98 -67 106 -255 17 -381 -87 -122 -201 -147 -275 -62 -42
47 -55 95 -50 179 6 84 31 147 84 205 72 80 159 103 224 59z m-1673 -125 c-3
-10 -5 -2 -5 17 0 19 2 27 5 18 2 -10 2 -26 0 -35z m1260 -15 c-2 -13 -4 -5
-4 17 -1 22 1 32 4 23 2 -10 2 -28 0 -40z m-1239 -103 c0 -16 -2 -15 -8 5 -4
14 -8 36 -8 50 0 22 1 22 8 -5 4 -16 8 -39 8 -50z m1229 38 c-3 -10 -5 -4 -5
12 0 17 2 24 5 18 2 -7 2 -21 0 -30z m-10 -55 c-3 -7 -5 -2 -5 12 0 14 2 19 5
13 2 -7 2 -19 0 -25z m-1210 -30 c-3 -8 -6 -5 -6 6 -1 11 2 17 5 13 3 -3 4
-12 1 -19z m1200 -10 c-3 -8 -6 -5 -6 6 -1 11 2 17 5 13 3 -3 4 -12 1 -19z
m-1190 -30 c-3 -8 -6 -5 -6 6 -1 11 2 17 5 13 3 -3 4 -12 1 -19z m1173 -33
c-16 -47 -23 -40 -8 8 6 20 13 35 16 33 2 -3 -1 -21 -8 -41z m-1140 -50 c0 -5
-5 -3 -10 5 -5 8 -10 20 -10 25 0 6 5 3 10 -5 5 -8 10 -19 10 -25z m1095 -54
c-21 -43 -29 -39 -8 4 9 19 18 33 21 31 2 -2 -4 -18 -13 -35z m-1061 -18 c9
-18 14 -33 12 -33 -6 0 -36 55 -36 66 0 11 5 3 24 -33z m1019 -54 c-10 -17
-24 -36 -32 -42 -8 -7 -2 7 14 31 32 49 45 57 18 11z m-958 -44 l37 -55 416 0
416 0 25 23 26 22 -24 -27 -24 -28 -418 0 -417 0 -35 48 c-38 53 -50 72 -44
72 2 0 21 -25 42 -55z m-145 -264 c19 -12 30 -21 24 -21 -16 0 -84 52 -114 86
-18 21 -13 18 15 -8 22 -20 56 -45 75 -57z m1294 57 c-22 -25 -103 -78 -118
-78 -6 0 12 13 39 29 28 16 59 38 69 50 11 11 21 21 24 21 3 0 -3 -10 -14 -22z
m-1159 -102 c28 -8 41 -14 30 -14 -21 0 -107 25 -90 27 6 0 33 -6 60 -13z
m960 -1 c-22 -8 -49 -13 -60 -13 -11 0 0 6 25 13 59 17 87 17 35 0z m-852 -22
c-7 -2 -21 -2 -30 0 -10 3 -4 5 12 5 17 0 24 -2 18 -5z m750 0 c-7 -2 -19 -2
-25 0 -7 3 -2 5 12 5 14 0 19 -2 13 -5z"/>
</g>
</svg>
